<svg width="250" height="200" viewBox="0 0 250 200" fill="none" xmlns="http://www.w3.org/2000/svg">
<path d="M87.3938 40.5063C86.8938 45.5558 86.6438 50.1079 86.6438 54.1626C86.6438 57.7199 86.7506 60.6313 86.9668 62.9022H84.5084C83.9381 57.4308 83.2272 53.3605 82.373 50.6938C81.5241 48.0272 80.0319 46.0741 77.8938 44.8293C75.761 43.5871 72.4902 42.9647 68.0813 42.9647H61.3626C58.8053 42.9647 56.9407 43.16 55.7688 43.548C54.5944 43.9386 53.7923 44.7355 53.3626 45.9438C52.9381 47.1522 52.7272 49.1105 52.7272 51.8188V78.0584H60.5084C63.0006 78.0584 64.9199 77.4725 66.2688 76.298C67.623 75.1261 68.5293 73.7407 68.9876 72.1418C69.4511 70.5376 69.8261 68.5272 70.1126 66.1105L70.4355 63.9751H72.8834C72.6673 66.9621 72.5605 70.3032 72.5605 73.9959V79.1209C72.5605 82.7459 72.7741 87.7954 73.2063 94.2668H70.748C70.6777 93.7668 70.4668 92.0428 70.1126 89.0897C69.7584 86.1392 68.7793 83.9178 67.1751 82.423C65.5761 80.9308 63.3548 80.1834 60.5084 80.1834H52.7272V104.725C52.7272 107.428 53.011 109.381 53.5813 110.59C54.149 111.798 55.1438 112.618 56.5605 113.048C57.9824 113.472 60.2949 113.754 63.498 113.892V116.027C59.8027 115.814 54.5761 115.704 47.8209 115.704C41.7011 115.704 37.149 115.814 34.1647 116.027V113.892C36.7272 113.754 38.5944 113.472 39.7688 113.048C40.9407 112.618 41.7402 111.798 42.1647 110.59C42.5944 109.381 42.8105 107.428 42.8105 104.725V51.8188C42.8105 49.1105 42.5944 47.1522 42.1647 45.9438C41.7402 44.7355 40.9407 43.9204 39.7688 43.4959C38.5944 43.0662 36.7272 42.7824 34.1647 42.6418V40.5063C41.136 40.7225 51.4485 40.8293 65.1022 40.8293C75.5527 40.8293 82.9824 40.7225 87.3938 40.5063Z" fill="#FF66C4"/>
<path d="M124.617 39.0166C128.88 39.0166 132.505 39.6208 135.492 40.8291C138.484 42.0374 141.401 43.7432 144.242 45.9437C145.026 46.5843 145.703 46.902 146.273 46.902C147.695 46.902 148.62 44.7718 149.044 40.5062H151.502C151.216 45.1312 151.075 53.3083 151.075 65.0374H148.617C147.831 60.4202 147.12 57.0973 146.482 55.0687C145.841 53.0426 144.776 51.1051 143.284 49.2562C141.151 46.4801 138.432 44.3994 135.127 43.0166C131.82 41.6286 128.247 40.9333 124.409 40.9333C119.784 40.9333 115.745 42.4645 112.294 45.527C108.849 48.5843 106.164 52.9385 104.242 58.5895C102.325 64.2432 101.367 70.876 101.367 78.4854C101.367 86.2354 102.398 92.8864 104.461 98.4333C106.523 103.975 109.383 108.188 113.044 111.069C116.703 113.951 120.846 115.392 125.471 115.392C129.026 115.392 132.474 114.715 135.815 113.36C139.161 112.006 141.794 109.98 143.711 107.277C145.133 105.293 146.164 103.16 146.804 100.881C147.443 98.6051 148.047 95.1182 148.617 90.4229H151.075C151.075 102.66 151.216 111.194 151.502 116.027H149.044C148.828 113.751 148.526 112.131 148.138 111.173C147.747 110.215 147.195 109.735 146.482 109.735C145.911 109.735 145.164 110.022 144.242 110.59C141.039 112.86 137.982 114.584 135.065 115.756C132.153 116.928 128.638 117.517 124.513 117.517C117.755 117.517 111.836 115.991 106.752 112.933C101.669 109.879 97.7212 105.454 94.9087 99.6624C92.1014 93.8656 90.7003 86.9437 90.7003 78.902C90.7003 71.0843 92.1378 64.152 95.0128 58.1104C97.893 52.0635 101.911 47.3682 107.065 44.027C112.224 40.6885 118.075 39.0166 124.617 39.0166Z" fill="#FF66C4"/>
<path d="M213.575 107.069C215.283 111.48 217.736 113.754 220.939 113.892V116.027C218.09 115.814 214.286 115.704 209.523 115.704C203.403 115.704 198.851 115.814 195.866 116.027V113.892C198.567 113.754 200.504 113.418 201.679 112.881C202.851 112.347 203.439 111.368 203.439 109.944C203.439 108.736 203.012 107.066 202.158 104.933L195.658 87.4438H169.846L165.471 98.7459C164.046 102.587 163.335 105.504 163.335 107.496C163.335 109.699 164.098 111.298 165.627 112.298C167.153 113.293 169.484 113.824 172.616 113.892V116.027C168.559 115.814 164.471 115.704 160.346 115.704C157.15 115.704 154.484 115.814 152.346 116.027V113.892C155.9 113.038 158.71 109.944 160.773 104.611L185.846 39.9751H187.554L213.575 107.069ZM194.804 85.3084L182.856 53.4126L170.7 85.3084H194.804Z" fill="#FF66C4"/>
<path d="M180.883 76.1626C180.987 76.0584 181.112 76.0063 181.258 76.0063C181.409 76.0063 181.534 76.0584 181.633 76.1626C181.729 76.2668 181.779 76.397 181.779 76.548C181.779 76.7095 181.729 76.8397 181.633 76.9438C181.534 77.048 181.409 77.1001 181.258 77.1001C181.112 77.1001 180.987 77.048 180.883 76.9438C180.784 76.8397 180.737 76.7095 180.737 76.548C180.737 76.397 180.784 76.2668 180.883 76.1626Z" fill="black"/>
</svg>
